
<svg xmlns="http://www.w3.org/2000/svg" version="1.1" xmlns:xlink="http://www.w3.org/1999/xlink" preserveAspectRatio="none" x="0px" y="0px" width="28px" height="28px" viewBox="0 0 28 28">
<defs>
<linearGradient id="Gradient_1" gradientUnits="userSpaceOnUse" x1="27.875" y1="34.25" x2="8.225" y2="-0.05000000000000071" spreadMethod="pad">
<stop  offset="0%" stop-color="#1CAAF7"/>

<stop  offset="100%" stop-color="#1C85F7"/>
</linearGradient>
</defs>

<g id="Layer_1">
<g transform="matrix( 0.813873291015625, 0, 0, 0.8136138916015625, -0.6,-0.1) ">
<g>
<g>
<path fill="url(#Gradient_1)" stroke="none" d="
M 17.95 0.1
Q 10.8 0.1 5.8 5.1 0.75 10.15 0.75 17.25 0.75 24.4 5.8 29.4 10.85 34.45 17.95 34.45 25.1 34.45 30.1 29.4 35.15 24.4 35.15 17.25 35.15 10.15 30.1 5.1 25.1 0.1 17.95 0.1 Z"/>
</g>
</g>
</g>

<g transform="matrix( 0.8139190673828125, 0, 0, 0.813629150390625, -0.6,-0.1) ">
<g transform="matrix( 1.2286224365234375, 0, 0, 1.2290496826171875, 0.7,0.1) ">
<path stroke="#0B2A83" stroke-width="2" stroke-linejoin="miter" stroke-linecap="butt" stroke-miterlimit="4" fill="none" d="
M 14.009847259521484 0.7949920654296876
Q 19.463105010986325 0.7949920654296876 23.329220581054685 4.659730529785156 27.195336151123044 8.483787536621096 27.195336151123044 13.935102844238282 27.195336151123044 19.386418151855466 23.329220581054685 23.251156616210935 19.463105010986325 27.115895080566407 14.009847259521484 27.115895080566407 8.556589508056641 27.115895080566407 4.690473937988282 23.251156616210935 0.8243583679199219 19.386418151855466 0.8243583679199219 13.935102844238282 0.8243583679199219 8.483787536621096 4.690473937988282 4.659730529785156 8.556589508056641 0.7949920654296876 14.009847259521484 0.7949920654296876 Z"/>
</g>
</g>

<g transform="matrix( 0.8139495849609375, 0, 0, 0.813690185546875, -0.6,-0.1) ">
<g>
<g>
<path fill="#0B2A83" stroke="none" d="
M 25.45 12.45
Q 25 12.45 24.7 12.75
L 17.5 20 10.25 12.75
Q 9.95 12.45 9.5 12.45 9.05 12.45 8.75 12.75
L 8.1 13.4
Q 7.8 13.7 7.8 14.15 7.8 14.6 8.1 14.9
L 16.75 23.5
Q 17.05 23.8 17.5 23.8 17.95 23.8 18.25 23.5
L 26.85 14.85
Q 27.15 14.55 27.15 14.1 27.15 13.65 26.85 13.35
L 26.2 12.75
Q 25.9 12.45 25.45 12.45 Z"/>
</g>
</g>
</g>
</g>
</svg>
