
<svg xmlns="http://www.w3.org/2000/svg" version="1.1" xmlns:xlink="http://www.w3.org/1999/xlink" preserveAspectRatio="none" x="0px" y="0px" width="28px" height="28px" viewBox="0 0 28 28">
<defs>
<linearGradient id="Gradient_1" gradientUnits="userSpaceOnUse" x1="68.3" y1="32.599999999999994" x2="55.7" y2="-0.3000000000000007" spreadMethod="pad">
<stop  offset="0%" stop-color="#F17E32"/>

<stop  offset="100%" stop-color="#E95617"/>
</linearGradient>
</defs>

<g id="Layer_1">
<g transform="matrix( 0.813873291015625, 0, 0, 0.8150634765625, -36.1,0) ">
<g>
<g>
<path fill="url(#Gradient_1)" stroke="none" d="
M 61.55 0.1
Q 54.4 0.1 49.4 5.1 44.35 10.15 44.35 17.25 44.35 24.4 49.4 29.4 54.45 34.45 61.55 34.45 68.7 34.45 73.7 29.4 78.75 24.4 78.75 17.25 78.75 10.15 73.7 5.1 68.7 0.1 61.55 0.1 Z"/>
</g>
</g>
</g>

<g transform="matrix( 0.8139190673828125, 0, 0, 0.8150787353515625, -36.1,0) ">
<g transform="matrix( 1.2286224365234375, 0, 0, 1.22686767578125, 44.35,0) ">
<path stroke="#500606" stroke-width="2" stroke-linejoin="miter" stroke-linecap="butt" stroke-miterlimit="4" fill="none" d="
M 13.996718597412105 0.8965866088867188
Q 19.44997634887695 0.8965866088867188 23.31609191894531 4.76821060180664 27.18220748901367 8.599080657958986 27.18220748901367 14.060108184814453 27.18220748901367 19.52113571166992 23.31609191894531 23.392759704589842 19.44997634887695 27.264383697509768 13.996718597412105 27.264383697509768 8.543460845947266 27.264383697509768 4.677345275878906 23.392759704589842 0.8112297058105469 19.52113571166992 0.8112297058105469 14.060108184814453 0.8112297058105469 8.599080657958986 4.677345275878906 4.76821060180664 8.543460845947266 0.8965866088867188 13.996718597412105 0.8965866088867188 Z"/>
</g>
</g>

<g transform="matrix( 0.8139495849609375, 0, 0, 0.8151397705078125, -36.05,0) ">
<g>
<g>
<path fill="#500606" stroke="none" d="
M 61.1 14.25
L 68.35 21.5
Q 68.65 21.8 69.1 21.8 69.55 21.8 69.85 21.5
L 70.45 20.85
Q 70.8 20.5 70.8 20.1 70.8 19.7 70.45 19.35
L 61.85 10.75
Q 61.5 10.4 61.1 10.45 60.7 10.4 60.35 10.75
L 51.75 19.35
Q 51.45 19.65 51.45 20.1 51.45 20.55 51.75 20.85
L 52.4 21.5
Q 53.1 22.2 53.9 21.5
L 61.1 14.25 Z"/>
</g>
</g>
</g>
</g>
</svg>
